<svg xmlns="http://www.w3.org/2000/svg" width="48" height="48"><path fill="#d43a02" d="M36 6H12a6 6 0 00-6 6v24a6 6 0 006 6h24a6 6 0 006-6V12a6 6 0 00-6-6z"/><path fill="#b31523" d="M36 40H12a4 4 0 01-4-4V12a4 4 0 014-4h24a4 4 0 014 4v24a4 4 0 01-4 4z"/><path fill="#fff" d="M23.983 18.163h-3.565a.5.5 0 00-.5.5v3.159a.5.5 0 00.5.5h3.195a.5.5 0 01.5.5v2.096a.5.5 0 01-.5.5h-3.195a.5.5 0 00-.5.5V31.5a.5.5 0 01-.5.5h-1.915a.5.5 0 01-.5-.5V15.555a.5.5 0 01.5-.5h6.48a.5.5 0 01.5.5v2.108a.5.5 0 01-.5.5zM29.835 32h-1.852a.5.5 0 01-.5-.5v-16a.5.5 0 01.5-.5h1.852a.5.5 0 01.5.5v16a.5.5 0 01-.5.5z"/></svg>