<svg width="37" height="42" fill="none" xmlns="http://www.w3.org/2000/svg">
  <g clip-path="url(#a)" fill-rule="evenodd" clip-rule="evenodd">
    <path d="M36.948.75 33.64 37.196 18.77 41.25 3.943 37.203.637.75h36.31Z" fill="#E44D26" />
    <path d="m18.791 38.152 12.017-3.276 2.825-31.147H18.791v34.423Z" fill="#F16529" />
    <path
      d="M12.363 12.671h6.431V8.202h-11.4l.107 1.2 1.116 12.32h10.17v-4.473H12.78l-.416-4.578Zm1.023 11.285H8.825l.636 7.02 9.313 2.542.02-.007v-4.65l-.02.006-5.063-1.344-.325-3.567Z"
      fill="#EBEBEB" />
    <path
      d="M18.778 21.722h5.596l-.526 5.797-5.07 1.345v4.65l9.32-2.54.066-.755 1.07-11.77.11-1.2H18.778v4.473Zm0-9.06v.01h10.978l.09-1.006.208-2.268.108-1.2H18.778v4.463Z"
      fill="#fff" />
  </g>
  <defs>
    <clipPath id="a">
      <path fill="#fff" transform="translate(.637 .75)" d="M0 0h36.31v40.5H0z" />
    </clipPath>
  </defs>
</svg>
