<svg xmlns="http://www.w3.org/2000/svg" class="svg-icon"
  style="width: 1em; height: 1em;vertical-align: middle;fill: currentColor;overflow: hidden;"
  viewBox="0 0 1024 1024" version="1.1">
  <path
    d="M938.666667 642.005333a36.096 36.096 0 0 1-0.341334 4.778667l-0.256 1.578667-0.682666 3.072c-0.128 0.64-0.341333 1.194667-0.554667 1.792l-0.938667 2.688-0.853333 1.792c-0.341333 0.853333-0.768 1.621333-1.194667 2.432l-1.066666 1.706666a32.810667 32.810667 0 0 1-4.608 5.76l-1.493334 1.450667a34.645333 34.645333 0 0 1-2.090666 1.706667l-1.621334 1.28c-0.213333 0.128-0.426667 0.341333-0.64 0.426666l-389.973333 260.053334a36.608 36.608 0 0 1-40.704 0l-389.973333-260.010667-0.597334-0.426667a34.432 34.432 0 0 1-3.754666-3.029333c-0.512-0.426667-0.981333-0.938667-1.450667-1.450667-0.64-0.64-1.28-1.28-1.834667-1.962666a30.165333 30.165333 0 0 1-2.816-3.84 44.288 44.288 0 0 1-2.304-4.096l-0.810666-1.792a37.034667 37.034667 0 0 1-0.938667-2.688c-0.213333-0.597333-0.426667-1.152-0.554667-1.792-0.298667-0.981333-0.426667-2.048-0.64-3.072l-0.298666-1.578667A36.138667 36.138667 0 0 1 85.333333 642.005333V381.994667c0-1.621333 0.128-3.2 0.341334-4.778667l0.298666-1.578667c0.170667-1.024 0.341333-2.090667 0.64-3.072a33.024 33.024 0 0 1 6.186667-12.586666 41.728 41.728 0 0 1 1.237333-1.621334l1.834667-1.962666 1.450667-1.450667a35.584 35.584 0 0 1 3.754666-2.986667c0.213333-0.128 0.384-0.341333 0.597334-0.426666l389.973333-260.053334a36.693333 36.693333 0 0 1 40.704 0l389.973333 260.010667c0.213333 0.128 0.426667 0.341333 0.64 0.426667l1.621334 1.28a35.797333 35.797333 0 0 1 2.133333 1.749333l1.450667 1.450667a31.36 31.36 0 0 1 4.608 5.802666l1.066666 1.706667 1.237334 2.389333 0.810666 1.792 0.938667 2.688c0.213333 0.597333 0.426667 1.152 0.554667 1.792 0.298667 0.981333 0.469333 2.048 0.682666 3.072l0.256 1.578667a35.584 35.584 0 0 1 0.341334 4.778667v260.010666zM158.677333 450.645333v122.709334L250.410667 512l-91.733334-61.354667z m316.672-89.088V190.506667l-287.317333 191.573333 128.341333 85.802667 158.976-106.325334z m360.618667 20.48L548.693333 190.506667v171.050666l158.976 106.325334 128.298667-85.845334zM188.032 641.962667l287.317333 191.530666v-171.050666l-158.976-106.325334-128.341333 85.845334z m360.661333 20.48v171.050666l287.274667-191.573333-128.298667-85.76-158.976 106.282667zM512 425.216L382.293333 512 512 598.741333 641.706667 512 512 425.258667z m353.322667 148.138667v-122.709334L773.589333 512l91.733334 61.354667z"
    fill="#050101" />
</svg>
